<svg width="32" height="32" viewBox="0 0 32 32" fill="none" xmlns="http://www.w3.org/2000/svg">
<path d="M28 12C28 18.6274 22.6274 28 16 28C9.37258 28 4 18.6274 4 12C4 5.37258 9.37258 0 16 0C22.6274 0 28 5.37258 28 12Z" fill="#5AC8FA"/>
<path d="M16.6783 5.26719C16.2939 4.91094 15.7002 4.91094 15.3189 5.26719L8.31891 11.7672C8.01891 12.0484 7.91891 12.4828 8.06891 12.8641C8.21891 13.2453 8.58454 13.4984 8.99704 13.4984H9.49704V18.9984C9.49704 20.1016 10.3939 20.9984 11.497 20.9984H20.497C21.6002 20.9984 22.497 20.1016 22.497 18.9984V13.4984H22.997C23.4095 13.4984 23.7783 13.2453 23.9283 12.8641C24.0783 12.4828 23.9783 12.0453 23.6783 11.7672L16.6783 5.26719ZM15.497 14.9984H16.497C17.3252 14.9984 17.997 15.6703 17.997 16.4984V19.4984H13.997V16.4984C13.997 15.6703 14.6689 14.9984 15.497 14.9984Z" fill="white"/>
</svg>
